<?xml version="1.0" encoding="utf-8"?>
<!-- Generator: Adobe Illustrator 18.1.1, SVG Export Plug-In . SVG Version: 6.00 Build 0)  -->
<!DOCTYPE svg PUBLIC "-//W3C//DTD SVG 1.1//EN" "http://www.w3.org/Graphics/SVG/1.1/DTD/svg11.dtd">
<svg version="1.1" id="Layer_1" xmlns="http://www.w3.org/2000/svg" xmlns:xlink="http://www.w3.org/1999/xlink" x="0px" y="0px"
	 viewBox="0 0 64.5 64.5" enable-background="new 0 0 64.5 64.5" xml:space="preserve">
<g>
	<polygon fill="#EF474B" points="11.4,21.9 24.9,11.4 50.2,13.9 51,32.4 51.4,47.6 34.2,56.9 16.1,52.2 8.5,32.4 	"/>
	<path fill="#FCB421" d="M32.3,1.2C15,1.2,1.1,15.2,1.1,32.4c0,17.2,14,31.2,31.2,31.2c17.2,0,31.2-14,31.2-31.2
		C63.5,15.2,49.5,1.2,32.3,1.2z M47.7,42.3l-5.5,5.5l-9.9-9.9l-9.9,9.9l-5.5-5.5l9.9-9.9l-9.9-9.9l5.5-5.5l9.9,9.9l9.9-9.9l5.5,5.5
		l-9.9,9.9L47.7,42.3z"/>
</g>
</svg>
