<?xml version="1.0" encoding="utf-8"?>
<!-- Generator: Adobe Illustrator 18.1.1, SVG Export Plug-In . SVG Version: 6.00 Build 0)  -->
<!DOCTYPE svg PUBLIC "-//W3C//DTD SVG 1.1//EN" "http://www.w3.org/Graphics/SVG/1.1/DTD/svg11.dtd">
<svg version="1.1" id="Layer_1" xmlns="http://www.w3.org/2000/svg" xmlns:xlink="http://www.w3.org/1999/xlink" x="0px" y="0px"
	 viewBox="0 0 64.5 64.5" enable-background="new 0 0 64.5 64.5" xml:space="preserve">
<g>
	<polygon fill="#293275" points="8.2,31.5 13.8,17.5 28.9,12.9 53.4,18.4 53.4,37.9 43.6,50.5 28.7,57.7 14.3,42.1 	"/>
	<path fill="#4CC0B4" d="M32.2,0.9C15,0.9,1,14.9,1,32.2c0,17.3,14,31.3,31.3,31.3c17.3,0,31.3-14,31.3-31.3
		C63.5,14.9,49.5,0.9,32.2,0.9z M49.8,31.7L33.5,49.6l-3.3-3l11.4-12.6l-8.6,0l-4.5,0l-14,0l0-4.5l14,0l4.5,0l7.9,0L27.6,18.1l3-3.3
		l16,13.9l0,0l2.1,1.9l1.2,1.1L49.8,31.7z"/>
</g>
</svg>
