<?xml version="1.0" encoding="utf-8"?>
<!-- Generator: Adobe Illustrator 18.1.1, SVG Export Plug-In . SVG Version: 6.00 Build 0)  -->
<!DOCTYPE svg PUBLIC "-//W3C//DTD SVG 1.1//EN" "http://www.w3.org/Graphics/SVG/1.1/DTD/svg11.dtd">
<svg version="1.1" id="Layer_1" xmlns="http://www.w3.org/2000/svg" xmlns:xlink="http://www.w3.org/1999/xlink" x="0px" y="0px"
	 viewBox="0 0 64.5 64.5" enable-background="new 0 0 64.5 64.5" xml:space="preserve">
<polygon fill="#FCB421" points="55.2,36.2 49.6,50.1 34,54.8 9,49.3 9,29.9 19.3,17.2 34.4,10 48.9,25.6 "/>
<path fill="#F2682C" d="M32.1,63.5c17.2,0,31.2-14,31.2-31.2S49.4,1,32.1,1S0.9,15,0.9,32.2S14.9,63.5,32.1,63.5z M14.6,32.7
	l16.3-17.9l3.3,3L22.7,30.4l8.6,0l4.5,0l14,0l0,4.5l-14,0l-4.5,0l-7.9,0l13.3,11.5l-3,3.3l-16-13.8l0,0l-2.1-1.9l-1.2-1.1L14.6,32.7
	z"/>
</svg>
