<?xml version="1.0" encoding="utf-8"?>
<!-- Generator: Adobe Illustrator 18.1.1, SVG Export Plug-In . SVG Version: 6.00 Build 0)  -->
<!DOCTYPE svg PUBLIC "-//W3C//DTD SVG 1.1//EN" "http://www.w3.org/Graphics/SVG/1.1/DTD/svg11.dtd">
<svg version="1.1" id="Layer_1" xmlns="http://www.w3.org/2000/svg" xmlns:xlink="http://www.w3.org/1999/xlink" x="0px" y="0px"
	 viewBox="0 0 64.5 64.5" enable-background="new 0 0 64.5 64.5" xml:space="preserve">
<g>
	<path fill="#F2682C" d="M32.1,1.2c8.4,0,16.2,3.1,22.2,9c5.9,5.9,9.2,13.6,9.2,22c0,8.3-3.2,16.1-9.1,22c-5.9,5.8-13.7,9.1-22,9.1
		c-8.4,0-16.2-3.3-22.2-9.2C4.3,48.1,1,40.3,1,31.9V1.2H32.1z M17.1,21.9c3,0,5.4-2.4,5.4-5.4c0-3-2.4-5.4-5.4-5.4
		c-3,0-5.4,2.4-5.4,5.4C11.7,19.5,14.1,21.9,17.1,21.9z"/>
	<text transform="matrix(-1 0 0 1 49.0928 49.9068)" fill="#FCB421" font-family="'Rockwell-ExtraBold'" font-size="38.1519">#</text>
</g>
</svg>
